<?xml version="1.0" encoding="UTF-8"?>
<svg width="23px" height="19px" viewBox="0 0 23 19" version="1.1" xmlns="http://www.w3.org/2000/svg" xmlns:xlink="http://www.w3.org/1999/xlink">
    <!-- Generator: Sketch 51.2 (57519) - http://www.bohemiancoding.com/sketch -->
    <title>Combined Shape</title>
    <desc>Created with Sketch.</desc>
    <defs></defs>
    <g id="Page-1" stroke="none" stroke-width="1" fill="none" fill-rule="evenodd">
        <g id="Desktop" transform="translate(-1395.000000, -1270.000000)" fill="#FFFFFF">
            <g id="Columns-Copy-4" transform="translate(1379.000000, 1262.000000)">
                <g id="Group-7" transform="translate(16.000000, 8.000000)">
                    <g id="Group-13">
                        <path d="M0,9 L10,9 L10,11 L0,11 L0,9 Z M0,13 L10,13 L10,15 L0,15 L0,13 Z M0,17 L10,17 L10,19 L0,19 L0,17 Z M13,9 L23,9 L23,11 L13,11 L13,9 Z M13,13 L23,13 L23,15 L13,15 L13,13 Z M13,17 L23,17 L23,19 L13,19 L13,17 Z M1,0 L9,0 C9.55228475,-1.01453063e-16 10,0.44771525 10,1 L10,6 C10,6.55228475 9.55228475,7 9,7 L1,7 C0.44771525,7 6.76353751e-17,6.55228475 0,6 L0,1 C-6.76353751e-17,0.44771525 0.44771525,1.01453063e-16 1,0 Z M14,0 L22,0 C22.5522847,-1.01453063e-16 23,0.44771525 23,1 L23,6 C23,6.55228475 22.5522847,7 22,7 L14,7 C13.4477153,7 13,6.55228475 13,6 L13,1 C13,0.44771525 13.4477153,1.01453063e-16 14,0 Z" id="Combined-Shape"></path>
                    </g>
                </g>
            </g>
        </g>
    </g>
</svg>