<?xml version="1.0" encoding="UTF-8"?>
<svg width="19px" height="17px" viewBox="0 0 19 17" version="1.1" xmlns="http://www.w3.org/2000/svg" xmlns:xlink="http://www.w3.org/1999/xlink">
    <!-- Generator: Sketch 51.3 (57544) - http://www.bohemiancoding.com/sketch -->
    <title>Featured product</title>
    <desc>Created with Sketch.</desc>
    <defs></defs>
    <g id="Page-1" stroke="none" stroke-width="1" fill="none" fill-rule="evenodd">
        <g id="Desktop" transform="translate(-1397.000000, -1721.000000)" fill="#FFFFFF" fill-rule="nonzero">
            <g id="Featured-category" transform="translate(1379.000000, 1712.000000)">
                <path d="M19,13 L36,13 L36,25 C36,25.5522847 35.5522847,26 35,26 L20,26 C19.4477153,26 19,25.5522847 19,25 L19,13 Z M19,9 L36,9 C36.5522847,9 37,9.44771525 37,10 L37,12 L18,12 L18,10 C18,9.44771525 18.4477153,9 19,9 Z M27.5,21.75 L30.1450336,23.1405765 L29.6398772,20.1952882 L31.7797543,18.1094235 L28.8225168,17.6797118 L27.5,15 L26.1774832,17.6797118 L23.2202457,18.1094235 L25.3601228,20.1952882 L24.8549664,23.1405765 L27.5,21.75 Z" id="Featured-product"></path>
            </g>
        </g>
    </g>
</svg>