<?xml version="1.0" encoding="UTF-8"?>
<svg width="17px" height="17px" viewBox="0 0 17 17" version="1.1" xmlns="http://www.w3.org/2000/svg" xmlns:xlink="http://www.w3.org/1999/xlink">
    <!-- Generator: Sketch 51.2 (57519) - http://www.bohemiancoding.com/sketch -->
    <title>Combined Shape</title>
    <desc>Created with Sketch.</desc>
    <defs></defs>
    <g id="Page-1" stroke="none" stroke-width="1" fill="none" fill-rule="evenodd">
        <g id="Desktop" transform="translate(-1398.000000, -1496.000000)" fill="#FFFFFF">
            <g id="Logo-List-Copy-7" transform="translate(1379.000000, 1487.000000)">
                <g id="Group-Copy-2" transform="translate(19.000000, 9.000000)">
                    <path d="M1,10 L6,10 C6.55228475,10 7,10.4477153 7,11 L7,16 C7,16.5522847 6.55228475,17 6,17 L1,17 C0.44771525,17 6.76353751e-17,16.5522847 0,16 L0,11 C-6.76353751e-17,10.4477153 0.44771525,10 1,10 Z M11,10 L16,10 C16.5522847,10 17,10.4477153 17,11 L17,16 C17,16.5522847 16.5522847,17 16,17 L11,17 C10.4477153,17 10,16.5522847 10,16 L10,11 C10,10.4477153 10.4477153,10 11,10 Z M11,0 L16,0 C16.5522847,-1.01453063e-16 17,0.44771525 17,1 L17,6 C17,6.55228475 16.5522847,7 16,7 L11,7 C10.4477153,7 10,6.55228475 10,6 L10,1 C10,0.44771525 10.4477153,1.01453063e-16 11,0 Z M1,0 L6,0 C6.55228475,-1.01453063e-16 7,0.44771525 7,1 L7,6 C7,6.55228475 6.55228475,7 6,7 L1,7 C0.44771525,7 6.76353751e-17,6.55228475 0,6 L0,1 C-6.76353751e-17,0.44771525 0.44771525,1.01453063e-16 1,0 Z" id="Combined-Shape"></path>
                </g>
            </g>
        </g>
    </g>
</svg>