<?xml version="1.0" encoding="UTF-8"?>
<svg width="25px" height="12px" viewBox="0 0 25 12" version="1.1" xmlns="http://www.w3.org/2000/svg" xmlns:xlink="http://www.w3.org/1999/xlink">
    <!-- Generator: Sketch 51.2 (57519) - http://www.bohemiancoding.com/sketch -->
    <title>Group 20</title>
    <desc>Created with Sketch.</desc>
    <defs></defs>
    <g id="Page-1" stroke="none" stroke-width="1" fill="none" fill-rule="evenodd">
        <g id="Desktop" transform="translate(-1394.000000, -1198.000000)" fill="#FFFFFF" fill-rule="nonzero">
            <g id="Group-17-Copy-2" transform="translate(1379.000000, 1187.000000)">
                <g id="Group-20" transform="translate(15.500000, 11.000000)">
                    <g id="Group-21">
                        <path d="M2,9.66061931 L4.00657748,7.42938479 L4.97709442,8.4973914 L8.87389027,4.11938741 L11,6.62928638 L11,2 L2,2 L2,9.66061931 Z M1,0 L12,-2.22044605e-16 C12.5522847,-3.23497668e-16 13,0.44771525 13,1 L13,11 C13,11.5522847 12.5522847,12 12,12 L1,12 C0.44771525,12 6.76353751e-17,11.5522847 0,11 L-2.22044605e-16,1 C-2.8967998e-16,0.44771525 0.44771525,1.01453063e-16 1,0 Z M15,1 L24,1 L24,3 L15,3 L15,1 Z M15,5 L24,5 L24,7 L15,7 L15,5 Z M15,9 L24,9 L24,11 L15,11 L15,9 Z" id="Combined-Shape"></path>
                    </g>
                </g>
            </g>
        </g>
    </g>
</svg>